<svg xmlns="http://www.w3.org/2000/svg" width="200" height="200" viewBox="0 0 200 200">
  <g opacity="0.32">
    <!-- 草ブロック (TL) -->
    <g transform="translate(20 30) rotate(-12 14 14)">
      <rect width="28" height="28" fill="#4ade80"/>
      <rect x="3" y="3" width="5" height="5" fill="#16a34a"/>
      <rect x="12" y="8" width="5" height="4" fill="#16a34a"/>
      <rect x="20" y="4" width="5" height="5" fill="#16a34a"/>
      <rect x="6" y="20" width="5" height="5" fill="#16a34a"/>
      <rect x="18" y="18" width="5" height="5" fill="#22c55e"/>
    </g>
    <!-- ダイヤ鉱石 (TR) -->
    <g transform="translate(140 25) rotate(10 13 13)">
      <rect width="26" height="26" fill="#94a3b8"/>
      <rect x="3" y="3" width="6" height="6" fill="#06b6d4"/>
      <rect x="14" y="10" width="5" height="5" fill="#0891b2"/>
      <rect x="17" y="17" width="5" height="5" fill="#06b6d4"/>
      <rect x="6" y="18" width="4" height="4" fill="#0891b2"/>
    </g>
    <!-- 金鉱石 (ML) -->
    <g transform="translate(15 100) rotate(8 13 13)">
      <rect width="26" height="26" fill="#a8a29e"/>
      <rect x="3" y="4" width="6" height="5" fill="#fbbf24"/>
      <rect x="13" y="9" width="5" height="5" fill="#f59e0b"/>
      <rect x="15" y="17" width="6" height="6" fill="#fbbf24"/>
    </g>
    <!-- ピッケル (中央) -->
    <g transform="translate(90 80) rotate(-30 15 15)">
      <rect x="2" y="13" width="26" height="4" fill="#92400e"/>
      <rect x="13" y="2" width="4" height="26" fill="#94a3b8"/>
      <rect x="12" y="2" width="6" height="4" fill="#cbd5e1"/>
    </g>
    <!-- 土ブロック (MR) -->
    <g transform="translate(150 105) rotate(-10 13 13)">
      <rect width="26" height="26" fill="#92400e"/>
      <rect x="3" y="3" width="5" height="5" fill="#6b4422"/>
      <rect x="12" y="13" width="5" height="5" fill="#6b4422"/>
      <rect x="18" y="4" width="5" height="5" fill="#78350f"/>
      <rect x="19" y="19" width="4" height="4" fill="#6b4422"/>
    </g>
    <!-- エメラルド鉱石 (BL) -->
    <g transform="translate(20 160) rotate(15 11 11)">
      <rect width="22" height="22" fill="#94a3b8"/>
      <rect x="3" y="3" width="5" height="5" fill="#10b981"/>
      <rect x="13" y="10" width="5" height="5" fill="#059669"/>
      <rect x="7" y="14" width="4" height="4" fill="#10b981"/>
    </g>
    <!-- レッドストーン (BM) -->
    <g transform="translate(85 170) rotate(-5 11 11)">
      <rect width="22" height="22" fill="#94a3b8"/>
      <rect x="3" y="3" width="5" height="5" fill="#dc2626"/>
      <rect x="13" y="3" width="5" height="5" fill="#b91c1c"/>
      <rect x="9" y="13" width="5" height="5" fill="#dc2626"/>
    </g>
    <!-- ラピス (BR) -->
    <g transform="translate(155 165) rotate(20 11 11)">
      <rect width="22" height="22" fill="#94a3b8"/>
      <rect x="3" y="3" width="6" height="6" fill="#2563eb"/>
      <rect x="13" y="10" width="5" height="5" fill="#1d4ed8"/>
      <rect x="5" y="15" width="4" height="4" fill="#2563eb"/>
    </g>
  </g>
</svg>
